<svg xmlns="http://www.w3.org/2000/svg" fill="none" viewBox="0 0 760.99 222.772"><path fill="url(#a)" d="M467.392.09a111.03 111.03 0 0 0-83.002 37.158c-.895.896-2.418.896-3.223 0a111.297 111.297 0 1 0 0 148.366c.895-1.075 2.328-1.075 3.223 0A111.297 111.297 0 1 0 467.303.179m0 169.228a58.2 58.2 0 0 1-41.904-18.355c-2.866-3.044-6.447-7.342-10.476-10.924q-2.776-2.507-5.552-4.656a45.665 45.665 0 0 0-53.365 0l-5.64 4.656c-3.94 3.582-7.522 7.88-10.387 10.924a58.2 58.2 0 0 1-41.815 18.266h-1.433l-3.76-.269h-.896a57.84 57.84 0 0 1-51.842-57.573v.268-.537.269a57.84 57.84 0 0 1 51.753-57.574h.985l1.522-.179h2.328l1.343-.09A58.2 58.2 0 0 1 339.89 71.9c2.955 3.044 6.536 7.342 10.476 10.923q2.776 2.507 5.641 4.656a45.665 45.665 0 0 0 53.365 0l5.552-4.656c4.029-3.581 7.61-7.88 10.476-10.923a58.2 58.2 0 0 1 41.814-18.266h1.343l2.328.09 1.433.089 1.074.09a57.84 57.84 0 0 1 51.575 54.17v.538l.09 1.611v4.477a57.84 57.84 0 0 1-51.664 54.26l-1.075.09-1.433.18h-2.328z"/><path fill="#FCFCFD" d="m86.584 80.854 33.13 10.744c4.924 1.97 22.742 6.447 36.083 19.788a62.68 62.68 0 0 1 17.819 44.77c0 48.709-50.321 66.527-86.853 66.527-55.604 0-79.6-24.623-86.763-31.16l32.86-42.083c2.329 3.224 25.072 24.176 53.903 24.176 11.192 0 28.921-4.388 28.921-17.729 0-8.954-9.133-15.938-28.92-22.206l-33.13-10.744C30.98 113.804 13.43 97.955 13.43 66.796c0-17.012 6.536-30.085 9.58-34.741C41.456 3.313 78.526 0 91.33 0c22.563 0 39.218 4.208 51.305 9.312 15.311 6.447 23.28 14.505 26.593 17.46l-27.399 35.01c-31.338-19.34-50.858-17.908-61.602-14.058a14.33 14.33 0 0 0-10.029 12.177c-.447 4.656.359 14.774 16.476 20.863m603.222-79.51h-89.09v220.265h53.364v-73.422h35.637c37.427 0 71.183-22.205 71.183-73.422S727.234 1.254 689.807 1.254m17.728 73.421a28.92 28.92 0 0 1-28.92 28.921H654.17V45.754h24.444a28.92 28.92 0 0 1 28.921 28.921"/><defs><linearGradient id="a" x1="28.85" x2="65.18" y1="8.89" y2="37.15" gradientTransform="matrix(8.95388 0 0 8.95388 -31.339 -90.076)" gradientUnits="userSpaceOnUse"><stop stop-color="#0082FF"/><stop offset=".42" stop-color="#0A96FF"/><stop offset=".56" stop-color="#05BCFF"/><stop offset=".76" stop-color="#00F0FF"/><stop offset=".79" stop-color="#04F0FC"/><stop offset=".82" stop-color="#10F1F5"/><stop offset=".85" stop-color="#24F4E8"/><stop offset=".89" stop-color="#40F7D7"/><stop offset=".92" stop-color="#64FBC1"/><stop offset=".94" stop-color="#82FFB0"/></linearGradient></defs></svg>